<mxfile host="app.diagrams.net" agent="Mozilla/5.0 (Windows NT 10.0; Win64; x64) AppleWebKit/537.36 (KHTML, like Gecko) Chrome/131.0.0.0 Safari/537.36" version="24.8.6">
  <diagram name="Seite-1" id="gEONXkQIFjKRjyexHyVN">
    <mxGraphModel dx="1687" dy="868" grid="1" gridSize="10" guides="1" tooltips="1" connect="1" arrows="1" fold="1" page="1" pageScale="1" pageWidth="1169" pageHeight="827" math="0" shadow="0">
      <root>
        <mxCell id="0" />
        <mxCell id="1" parent="0" />
        <mxCell id="BGJVfZoiyL1sRm1Vpu-n-5" value="" style="shape=image;verticalLabelPosition=bottom;labelBackgroundColor=default;verticalAlign=top;aspect=fixed;imageAspect=0;image=data:image/png,iVBORw0KGgoAAAANSUhEUgAAA+gAAAPoCAYAAABNo9TkAAAAAXNSR0IArs4c6QAAAAZiS0dEAP8A/wD/oL2nkwAAAAlwSFlzAAAN1wAADdcBQiibeAAAAAd0SU1FB90MEwcYN9rBm/IAACAASURBVHja7N15vCV3Xef/V3f2kD1kg5BAAoQQdlxAQEAWcQEFxZHBXUQUf4IMyjg6iqOO4Iwz4ILsSsQNB0SBEUVRWWVHhIQlCWvIBmTfOp3m90dVD03bna5z77n3nnvv8/l41OMuXd197rtuVX0+p6q+3wIAAAAAAAAAAAAAAAAAAAAAAAAAAAAAAAAAAAAAAAAAAAAAAAAAAAAAAAAAAAAAAAAAAAAAAAAAAAAAAAAAAAAAAAAAAAAAAAAAAAAAAAAAAAAAAAAAAAAAAAAAAAAAAAAAAAAAAAAAAAAAAAAAAAAAAAAAAAAAAAAAAAAAAAAAAAAAAAAAAAAAAAAAAAAAAAAAAAAAAAAAAAAAAAAAAAAAAAAAAAAAAAAAAAAAAAAAAAAAAAAAAAAAAAAAAAAAAAAAAAAAAAAAAAAAAAAAAAAAAAAAAAAAAAAAAAAAAAAAAAAAAAAAAAAAAAAAAAAAAAAAAAAAAAAAAAAAAAAAAAAAAAAAAAAAAAAAAAAAAAAAAAAAAAAAAAAAAAAAAAAAAAAAAAAAAAAAAAAAAAAAAAAAAAAAAAAAAAAAAAAAAAAAAAAAAAAAAAAAAAAAAAAAAAAAAAAAAAAAAAAAAAAAAAAAAAAAAAAAAAAAAAAAAAAAYBm2iAAAVuT8elR19C7LUbt9vt/48cDqVuNy4Pi9A6rDq0Oqg2c4n395wro3VNdXV1c3VVdU26prx2Xb+L2bq8vHzy/fw+eX28wAoEEHgLVwTHVidXx1m/HjCdVJ1XHj947cpQHfDK7YpXG/qLq0unhcLqsuHD9eXH3JrxAAaNAB4JbsNzbep1Qnj8vun9+64eo2S3dj9cXq02Pj/rnx88+Ny2fGRn6HqADQoAPAxnV8dXp1x+pO4+d3qG7bcOV7fxEthJsarsRfWH2yOq/6RHX++PllIgJAgw4Ai++g6ozqXtVddmnI71gdIZ4N4cpdmvXzqo9WH6w+1vDsPABo0AFgFR02NuB3rc4cl7tWpzXcrs7ms73hivtHxqb9nOrc8fNrxAOABh0AlmdrwxXx+4zLPao7NzwTDlN8ueHZ9o9XH6rePy4fz7PuAGjQAWCP9m+4Kn6f6r7jx3s1XC2Hebu64db4nQ37+xqutt8sGgA06ABsNneu7ld9ffW11VnVoWJhDV1Xfbh6T/Wu6l8aBqgDAA06ABvGkdXXjQ35zqb8WLGwDnxhl2b9X6p3V1eJBQANOgDrxV2qb6we0HC7+pkNz5NvNjdWl1dXjB93//yacblp/Pqm8evrxr97ZcPgZ1fO+XUdWR3QMLL9wdUh1eHj944aPx42fu+o6uhx2f3zgzbhNt3RMADd+6q3VW9tGEEeADToAKy5rdXdqwdXDxob8+M36M96TXVpdUnDfNyXVRePH78wfv+S6otjI37dBt/2h47N+rHjNj+hOm5cThw/3nr8/gnVrTZoDpdUbxmb9X9uuE3eAHQAaNABWBX3qL55bMYf2HA1db27tmG0789WF+7y+efGj5/JdF3LdXh1u4ZR+G+7y+cnj8upbYxxCC5vuLr+lupvq3+z6QHQoAMwL8dXjxiXR1YnrdOf46LqvHE5f5fPLxibKtbeMQ3z2d+xOn38uHM5cZ3+TBdWb6r+rvr7hjsuAECDDsAkBzdcGd/ZkN9zHZ0vrm6YLuvc6iO7NeLX2rTr2mG7Ne53HZe7tH6m49vRML3bzob97Q3jDQCABh2A/+du1bdVD2sY3G3RbzX+YsNgXeeOyzljY/4Zm3JTOnVs1O/aMCjhmePnxyz4676u4dn1N1evH3+PAdCgA7DJHNwwsNujx8b89gv6Or/ccBX8A+Pywer9DQNzwb6cWN2nuld173E5bYHrnwuqN4zN+j/n6jqABh2ADeuksRn/tobb1xdtVO1tDbelf3CXZvxfM+8083VEw2Mb996lcT+rYXq5RXJNw63wbxiXi206AA06AOvb7avHVo+v7rdgx/1PVu+q3j0uH2jjT03GYjq04Ur7143L17dYd5V8uXpn9RfVX1aftskANOgArI/j+gPGhvzbG27nXZRm/G3V+8blg5m2jMV2eMOV9vuOy4MWqGm/oOE2+L9oGGjuyzYXgAYdgMVxn+px43LmAryeSxrmgX5rw7O0H7KJ2AA10z0axm540LicsACv65zqNePyAZsJAADWxl2q/9ZwNe3La7x8ujq7elJ1hk3DJtoHn1z9UcMMAmu9H55fPbu6s00DAAAr77bVf2q4TXwtG4FLqj+tfqhhiitguAX+h6s/qy5d4330PdXPVLexWQAAYH6Oqn60Ya7km9eo2L+m+pvxzYF75hEp2JctDaPEP7N6Y3XtGu2726u/H984ONJmAQCA2R1aPbHhudIb1qCo31G9o/rVhmduD7RJYFkOqh5S/Vr1L+M+ttr79fXVq6snVIfYJAAAsHf7VY+uXjUW0qtdvF9cvahhBPhjbA5YUceM+9rZ1ZfWqFl/VfXw3BEDAAD/z22qZ1XntjaDSv129ciGK3zA6ju4+ubqd1qbQR/PqX62OsmmAABgMzqo+u6GuYy3t7q3rv9L9XPVXW0GWEhnNbxp965VbtRvql7XMF2jx1oAANjwbtfwDOrFre4gUf9cPa06xSaAdeXUhtHY39rqDhJ5UfUrDTNHAADAhrGl4Rbyv2z1rpbf2DBy9JOr420C2BBOrH68+rtqW6t3Vf3VeVYdAIB17pjqGdXHV6mQvrb6P9X3NUzNBmxcR1c/0DDTw3WrdIz5WMPV/KPFDwDAenH/6uWrVDTfVL2hYUq2w0QPm9Lh1fdXfzMeE1bjzcCXVfcTPQAAi+ig6gerD7Q6A729vXpqdZzogV0cX/1/1TtbnavqH2i4km9QOQAA1txx1X9tGFBpNaZC+oXqDmIHJjit+sXqo6twfPr8+H950xAAgFV3/+pVrfxATZdVz6/uK3JgGe47Hku+sMLHrG3jsdHt7wAArKj9qsc0jKC8o5W9hf2t1Y80PFsKMC9HVE+q3tbKP4rzxurR47ETAADm4uDqKdV5K1zQfrb69epOIgdWwRnVb1QXrvCx7RMNUz4eJHIAAJbqiOpZrezz5TdWf1Z9c64yAWtjv+pbqj8fj0kr+Zz6z47HVgAAmOSUhmc1r1nBQvVDDVeUjhQ3sECOHI9NH1rB49814zH2duIGAGBv7lC9oLp+hYrS7dVrq0dVW8UNLLCtDVfV/2o8dq3EMfG66ner24sbAIBdG/OXtHIjsn+uenZ1sqiBdejk6lfGY9lKPerzIo06AIDGfCUb8w9UP9wwyBzAendww+wSH1zBRv3FGnUAgM3lLg3z9N68AgXm9Q1XgsxbDmxk963ObmXe4Lx5PEbfRcwAABvXmSvYmH+uYcT3E8QMbCInNjzCc6lGHQCAKc6o/riVudJzTvUT1a3EDGxih1VPrT66AsfZbdUfVXcSMwDA+nXHhqsvO+ZcLO6oXlc9UMQA/84Dx2PkSl1RP13EAADrx20angOf9xXz7Q3PXN5LxAD7dO/xmDnvadq2jcf4k0QMALC4jq6eU13b/Ad+e351mogBZnb6eAy9fs7H5mvGY/5RIgYAWBwHVj9dXTLn4u+66gUac4C5NeovXIFG/eLqp6oDRAwAsHa2Vk+uPjvnYu/yhhHZjxAxwNwd2zDy+xVzPnZ/tvqBaouIAQBW1zdW71mhxvxw8QKs20b93dWDxAsAsPJOb/6jA2vMAda+Ub98zsf212XEdwCAFXHr5j8yu8YcYHEcswKN+raGAeoMJAcAMAdbqydVFzXfUdn/Z3WceAEWzgnV/65umONx/8Lqh/J8OgDAkn1zde6cG/PnNFyNB2CxHTces+fZqH+gYQwTAAAmukPzfc58e8Pt8aeIFmDdOWU8hm9vvs+nnypaAIC9O6zhasl1cyrAdlSvqs4ULcC6d9fxmL5jTueIaxueeT9YtAAAX+1bq481v6sj/1I9VKwAG87DGqZSm9f54tyGR6oAADa906rXz7HQ+mT1vRkICGAj21I9sfr0HM8ff1XdXrQAwGZ0cMPt7POaNu2S6snVAaIF2DQOGI/9lza/admeUx0kWgBgs3hEdV7zHZn9aLECbFpHN98R3z/ecCs9AMCGdVzDAD/zGgDu7IzMDsBX3GkFzjOm5gQANpzHV5+fU9H0kYar8ACwJ49qGPxtHuecz1WPFSkAsBGc2vwGgbuyekaeMwdg3w6sfra6qvkNInc7sQIA69F+1bOaz5zm26vn5zlzAGZ3zHgO2T6H89F147ltP7ECAOvFvasPNJ8rFm8f/z0AWI77VO+Y07npHdWZIgUAFtmBzW/qtIurH8h85gDMz5bx3HJJ85uS7UCxAgCL5qzqXc1n1NyXZdRcAFbO8dUrxnOOq+kAwIZxQPVfqxvnUOR8uHqQSAFYJQ9pPqO931D9l2p/kQIAa+Wu1fvnUNhcW/18RmcHYPUdWP1idf0czmfvre4iUgBgNe1XPbv5PGt+dnWSSAFYY7epXtV8nk1/dkZ6BwBWwR2bzyi4n6y+TZwALJhHV59qPrOQnC5OAGClPL76YssfBO73qyPECcCCOrJ6ScsfRO4L1XeJEwCYd6Fydsu/mnBB9U3iBGCdeGTzuZr+B3ljGgCYgwfPoTjZUf1udZg4AVhnDq9e2PKvpl9QPVCcAMBSHFg9fw4FyTnV/cQJwDp3/5Y/JduO8dx6oDgBgKnu1DBVzHKKkO3Vc6qDxQnABnHweG7bvsxz5LsbBl0FALhF31V9aZmFx/nVg0QJwAb1kIbZSJY7gNx3iBIA2JNDGp6xW+5AOC/Os+YAbHxHVC9rPmO0uNsMAPh/7tfyrwR8pnqYKAHYZB5RfXaZ59CPVvcSJQDw49V1yyws/k91a1ECsEkdX712mefSa6sfFSUAbE5HzaGYuKzhmXUAoB7f8Gz5cs6tr6mOFCUAbB5nVP+2zALiH6rbiRIAvsrtq39e5jn2gxnlHQA2hSdV1y+jaLihelq1RZQAsEdbxnPljcs4315dPUGUALAxHVA9r+W9o39Bw4ByAMC+PbD6dMsb5f1/VPuLEgA2jtOq9y+zOX9+w1RsAMB0h1d/tMxz8HurO4gSANa/h1WXtrxRZZ8kRgBYlqe0vFlTLqoeLEYAWJ+2Vs9puD1uqcXA26tTRQkAc3Hn6n3LOC9vr56VcWAAYF05pHply7ud7verg0UJAHM/R790mefoP3COBoD14S7VR5dx0r+8+g4xAsCKemx1xTLO1//aMMYMALCgHtrynjf/aHU3MQLAqrhn9YllnLcvrh4kRgBYLFta/vPmL8ntcgCw2g6r/iTPpQPAhnBw9YplnNi3VU8TIwCsmS3VM6ublnE+f3l1kCgBYO3crvrgMk7m51f3FiMALIT7Vhcs47z+L9WJYgSA1XfWMk/ir6tuLUYAWCjHV29cxvn9vIYBYwGAVfKd1TVLPHHfnGfVAGCRbRnP1Tcv8Vx/dfUYMQLAyntqS39G7Zrq8SIEgHXhP1bXtfQxZp4sQgBYGQdWL2vpt7ydU91ZjACwrty9YcyYpZ7/X1wdIEYAmJ8jq79Zxsn5H/O8OQCsV8dXb1lGHfDX1eFiBIDlu2P1iSWekHc0zI++nxgBYF3bbzynL7VJ/0h1ihgBYOnuWn26pT979uMiBIANZTlj0VxQnSFCAJjdoxpGYV3KCfiS6htECAAb0gOqS5dYI1xePViEADDd46rrM/8pALBnZzVcEV9KrXBtpmEDgEme3fDs+FJOuK/PIDAAsFkcXb25pY9T83MiBIA921o9v6UP/vI7GQwOADab/asXLKN+eP5YgwAAu5xcX9HS3wH/eRECwKa1pfqlln4H3svyJj8AVHVw9VdLPKHeUH2PCAGA6onVjUusKV5THSRCADazY6t3t/SR2r9OhADALu7X0kd4f0t1pAgB2IyOq967xBPopxrmSAcA2N3dq88uscZ4V8MFBADYNO7Y0qdGeZsTJwCwDye29AsB51enixCAzeAe1UVLPGH+dXWoCAGACW7VMAXrUmqOzzdciQeADeueDc+OL+VE+YfVASIEAGZwYPXKJdYeF1V3EyEAG7U5X+qgLb/eMIUKAMCstlTPXUaTfpYIAdhI7l9dsYST4s3VU8QHAMzBU8faYtZ65PKG0eEBYN37puqaJZwMt1VPEB8AMEdPHGuMWeuSK6pvEB8A69mDqquWcBK8oXqc+ACAFfD46kZNOgCbyWPGRnspJ78HiQ8AWEEPrq5cQp1ybfVI8QGwnjy2pb0zfWFGSwUAVsd9W9oAtjdW3yk+ANaDR7e0K+cXZpRUAGB13aNhpPZZ65brq28THwCL7Ftb2pXzz1R3Eh8AsAbOaLhQsJQxc75FfAAsose0tFFRP17dTnwAwBo6pTqvpd3u/mjxAbBIvr2lXTn/t+oE8QEAC+B21SeW2KS73R2AhfCNLW2e83Or24gPAFggp1bnL6Guubp6oPgAWEsPbZhuZNaT2Luqo8UHACygExru8lvKFGwPER8Aa+HBS2zO31kdJT4AYIEdX/3rEuqcaxruLgSAVXO36ktLOGm9J1fOAYD14cTqQ0uod75YnSk+AFbDXapLW9pt7UeIDwBYR46s3r2EuueShunbAGDFnFp9tqVdOT9SfADAOnRU9d4l1D+fbpi+DQDm7oSGOctnPTm9L8+cAwDr261b2sBxH66OFR8A83RYw+Bus56UPladJD4AYAO4bXXeEuqht1WHig+AebhV9Y4lnIw+0jACKgDARnFCde4S6qI3VweLD4DlOKj6uyWchM4dT2AAABvNydX5S6iP/rraX3wALMWW6hVLOPl8vjpNfADABnanhpHaZ62TXjrWWAAwk99fwknn4vGEBQCw0Z1VfWEJ9dL/FB0As/jZJZxsvlTdU3QAwCbytdVVS6ibni46AKb4/mrHjCeZa6r7iw4A2IQeWl0/Y+10c/XdogPgljygum7GE8xN1WNFBwBsYo+vts9YQ11bfb3oANiTe1ZXznhi2V49TnQAAD2x4cr4LLXUFdXdRQfArk6pLpzxhLKj+iHRAQD8Pz/Z7M+jf7Zh6jYA6PDqfUs4mfy66AAA/p3fXEJd9a7qVqID2NwOqt6yhJPI74kOAGCPtlQvX0J99bfV/uID2Lz+YAknj9dW+4kOAGCvDqjeuIQ666WiA9icljLX+TuqQ0UHALBPh1fvX0K99dOiA9hcvrXZpwL5dHUb0QEATHa76nMz1lzbqoeLDmBz+Npmn+v8kup00QEAzOzM6osz1l5XVfcQHcDGdnKzT6d2zdjUAwCwNA+qrp+xBvtUdYLoADamgxueIZ/lxHBz9V2iAwBYtieMtdUstdhbG2bdAWCDWcqI7c8QGwDA3PznJdRjLxEbwMbyjCWcDH5bbAAAc/d7GdkdYNP6lmYfsf11mescAGAl7F/93Yy12U3VQ0UHsL6d0jAC+ywngI9WR4sOAGDFHFt9YsYa7eKGAX8BWIeOqM5ZwoH/9qIDAFhxd2j2CykfrG4lOoD1ZUv1lzMe8K+tvkZ0AACr5gHVDTPWbK8eaz0A1olnNvvgIz8iNgCAVffkJdRtTxcbwPrwzc0+KNzvig0AYM28qNkHjXuY2AAW25nV1TMe4P9vRmwHAFhL+1dvnrGGu7w6XXQAi+nQ6t9mPLB/IiO2AwAsgmOr82es5f61OkR0AIvnj2c8oF/ZcMUdAIDFcM/qmhlruheJDWCxfN+MB/Id1RPEBgCwcH6w2QeN+w9iA1gM96mun/Eg/qtiAwBYWM+dsba7pjpLbABr68iG58hnOYD/dbVVdAAAC2tr9YYZa7yPVUeIDmDtzPrc+WeqW4sNAGDhnVBdOGOt94diA1gbPznjAfvG6n5iAwBYNx5YbZux5vsxsQGsrvtXN814sH6y2AAA1p2nzljzbau+XmwAq+OIZp8j8w/EBgCwbr1ixtrvE9XhYgNYeS+f8QB9TnWY2AAA1q0jGgaBMz86wAKZdV7MK6o7ig0AYN27c3XljLXgE8UGsDLOaJjjcuoBeUf1GLEBAGwY3zNjg3712NgDMEcHVO+c8YD8ArEBAGw4L5mxJnxrtb/YAObnf854IH5fdZDYAAA2nIOqD8xYG/6G2ADm4+HVzTMcgK+t7io2AIAN6+7V9TPUh9urh4gNYHlOqC5ttndIf0BsAAAb3o/OWCN+vjpWbABL99oZD7xniwwAYNN45Yy14mtEBrA0T5jxgHt+daTYAAA2jaOrT81YM3632ABmc2qzzXN5fcOzSAAAbC5fU904Q914RXWK2ACm2VL9bbO9E/pzYgMA2LR+Ycba8Q1jzQnAPjx1xgPsP1ZbxQYAsGltbZjvfJYa8sfFBnDL7l7dMMOB9QvVbcQGALDpnVx9qdkekTxLbAB7trV6Z7O98/n9YgMAYPTDM9aSb8udmAB79KwZD6ivFBkAALv50xlryv8kMoCvdlaz3dr+qUypBgDAv3dU9ZkZ6sobqjPFBjDYWr1lhoPojuqbxQYAwF5821gzTq0v35xR3QGqemaz3Yb0WyIDAGAfnj9jjfk0kQGb3enVNTMcOM+tDhUbAAD7cKvq4zPUmVdVtxcbsFltaZjDfOpB8+bqG8QGAMBEDxpryKn15ptyqzuwSf1Ms9129FyRAQAwo/81Y835VJEBm82p1dUzHCjPa7hNCQAAZnFY9ckZ6s4rq9uKDdhM3jjDQXJ7dX+RAQCwRA9utlHd3yAyYLP43ma7zej5IgMAYJleMGMN+jiRARvdEdWFMxwYP10dLjYAAJbpyOpzM9ahh4kN2MhePMNBcUf1EJEBADAnD2u2W91/V2TARnW/Zpvm4uUiAwBgzl7ZbGMh3VdkwEZzQPWvMxwML2y4DQkAAObpmOqSGerS91b7iQ3YSH6x2Qbl+E6RAQCwQr5nxtr050QGbBSnVddmWgsAABbHm2aoT6+uThEZsBG8ZoaD37XVHUQGAMAKu1N1/Qx16p+JDFjvvq3Zbh/6GZEBALBKnjVjrfookQHr1QHVuTMc8D40/h0AAFgNB1bnzFiv7i82YD36z802hcXXiAwAgFX2dc02FfAzRAasNydVV85woHuhyAAAWCMvn6Fu/VJ1nMiA9eQVMxzkLq6OEhkAAGvkmOqyGerXF4sMWC8e0myDbTxRZAAArLEfnqF+3VHdT2TAotu/+vAMB7d/qraIDQCANbaleucMdez7qq1iAxbZU2Y4qN2cgeEAAFgc39BwdXxqPfvDIgMW1bENg2ZMPaC9QGQAACyYl85Qz15aHSkyYBE9N6NfAgCwvs06G9GviAxYNHeqbpzhQPYUkQEAsKCeNkNde311qsiARfInMxzEPtQwmBwAACyiA6tzZ6hv/0BkwKL4umYbTOPBIgMAYME9otkGP76XyIC1tqX6lxkOXn8uMgAA1om/nKHO/WdxAWvte2Y4aN1Q3UFkAACsE6c32zhL3ykyYK0cUH18hgPW80UGAMA684IZ6t1zMtYSsEZ+fIaD1eUN86QDAMB6cnyzTbv2IyIDVtvh1SUzHKieJjIAANapZ85Q915YHSoyYDX93AwHqQuqg0QGAMA6dUj16Rnq36eLDFgtx1ZXzHCAepzIAABY52YZHPlL1dEiA1bDr81wcHpHw1RsAACwnm2p3j1DHfzLIgNW2snV9RMPSjuqrxUZAAAbxANnaNCvqU4UGbCSXjjDQem14gIAYIN5wwz18G+LC1gpd6m2TzwY3VzdTWQAAGww9xhr3Sk18bbqNJEBK+EVTX+38E/FBQDABvXqGeril4gLmLdZrp7fWN1eZAAAbFB3qm6aWBtvr+4sMmCe/qDp7xK+WFwAAGxwf6g+BtbCGU2/en5tdZLIAADY4G5bXdf0q+h3EhkwDy9v+ruDvyUuAAA2id+ZoU5+kbiA5TqtYfTJKQedq6tbiwwAgE3ixIY7SKeO03SqyIDlmGXk9l8TFwAAm8xzZ6iXXyouYKlmefb8quoYkQEAsMncuuFOUvOiAyvqD5v+buBviAsAgE3qf2ZedGAFzfLs+bXVCSIDAGCTuk11/cTa+YY8iw7M6CVNfxfwN8UFAMAm979nqJ9fIC5gqhOb/g7gdZn3HAAATm64Oj71DtTjRAZM8T8y7zkAAMzqt2eoo/+7uIB9OaK6YuJB5frqtiIDAICqTmmY73xKLf3F6jCRAbfkF5r+rt/viAsAAL7KC2eop39OXMDeHFJdMvFgclN1e5EBAMBXOW2slafU1BdXB4sM2JOfbPq7fa8UFwAA7NGfz1BX/5i4gN3tX10w8SCyo7q7yAAAYI/uOdbMU2rr86r9RAbs6rFNf5fvjeICAIBb9A8z1NePFhewq7fNcAB5kLgAAOAWfdMM9fU/igvY6d4zHDzeJS4AAJjk/U1/hPRu4gKq/miGBv0x4gIAgEm+a4Y6+w/EBZxQ3TDxoHFutVVkAAAwyX7VJybW2tdVtxbZ5qbZ4qnVQRPX/V8Nt98AAAD7dnP1vyeue8hYmwOb1CHVpU17R++ycX0AAGC6Q6svTKy5L6kOFtnm5Qr65vaE6riJ6764ul5kAAAwk+uql01c9/jqP4gMNp8t1b817Z28bdVtRAYAAEtySnXTxNr7/eKCzecbmj6i5KvEBQAAy/KaGerv+4kLNpc/meEA8TXiAgCAZXnADPX3H4kLNo9bNzxPPuXg8B5xAQDAXLy/6VOuHSOuzccgcZvTDzd9dMjniQsAAObi+RPXO6T6QXHBxre1Oq9p79x9vjpQZAAAMBcHVRdPrMU/2jCwM7CBfWvTn315trgAAGCufnWGevyR4oKN7XVNn1rtJHEBAMBc3a7aPrEmf424YOO6fXXzxIPBX4oLAABWxNSLZjdVJ4tr8zBI3ObyYzNs8xeKCwAAVsSLJq63f/UkccHGs191YdPeqftk3rwBAICVsn/12Ym1+afV5rDxPLrpg1E8S1wAALCifnGG+vybxQUby19M3PlvxgfUnwAAIABJREFUrE4UFwAArKjbNjxjPqVG/2NxwcZx67HxnrLz/7m4AABgVfzlxBr9uuooccHG8NNNv33mm8QFAACr4lEz1OlPERdsDB+euNN/otoiLgAAWBVbq09NrNXfJy5Y/7626e/K/YK4AABgVf3KDPX6vcQF69sLJu7s2xsGqgAAAFbP7aubJ9bszxMXrF+HVldM3NnfKC4AAFgTb55Ys3+hOkhcG5cJ7ze2R1dHTlz3bHEBAMCamFqLH9swsBywDr2xae/EXVYdKC4AAFgTh1SXT6zdXy0uWH+Oq7ZN3Ml/X1wAALCmXtb0OdGPEBesLz/Z9NEgv05cAACwph44Q/3+Q+KC9eWtE3fuj4gKAADW3JbqExNr+L8TF6wfp1U7Ju7cPy8uAABYCL88sYa/OVMkw7rxCxN37B3VKeICAICFcHrTL7Q9Q1ywPpwzcad+m6gAAGChvHtiLf9eUcHiu2fTB5d4qrgAAGCh/MwM9fxdxQWL7TkTd+ZtDVOxAQAAi+OkavvEmv6/iQsW23kTd+a/FRUAACykf8yMTLDu3StzJwIAwHr35Bnq+jPFBYvp1yfuxNdWh4sLAAAW0lHVDRNr+18SFyymj0zcif+PqAAAYKH99cTa/gOigsVzt6bfBvM94gIAgIX2fTPU92eICxbLL0/cea+rDhMXAAAstCObfpv7z4sLFsuHJu68rxUVAACsC2+YWOO/V1Qbw/4i2BDOqO4+cd1XiwtgTd2xemB14IR1D2i+dz1dW23bxzrnVW+2mQAWwqurb52w3n2r06oLRKZBZ+09duJ626rXiQvYwA5omKXiqOqg6tDx6wMbbhU8uDpk/PzA8c8OHdc9evzercam+KBxvZc3zJIxL4+oXrDAGb5yzg36Y6o/HD+/fDwXXVtdU9202/d2voEw9XtXVFeP/w7ARvRX1Ysm9m2PrX5LZBp01t5jJq73T2MxA7BIdjbNh4wN884G+4hdvj58bJaPHD/f9c+O3uXzg1fg9Z08539v24Jvjx1z/vcOG7dRu3yctxvHRv2q6srx86vHNwGuHJdrdvneFeO611SXNNw1ALCIvli9pfqmCet+hwZdg87aO7H6+onr/oW4gAX0/1W/ucCv71AN+rIcuAqv+aBxufUS/u5rqu+yGwIL7C8mNugPqE5oeOMRDTpr5FHV1gnr3Zzb24HZGp7jquMb3gi89S6fv7P5jmfxpQXPQoO++A36clw153/vodWvVJeORfJl1Rf28PVlDQM7AezLX1W/N6Hm39rwGNUrRaZBZ+18+8T13pl302CzO6bhnfWdjfcJuzXhx43LiQ23ku/Ny+bcoF++4LkdMud/71PV2Q1T5+zLTQ23Yc/LYQ3P6d+St22yBv3qOf97d6geNGG9Hbs165eMTfzOry/e5fNLW/w3soCVc1H1rur+E3sDDboGnTVycMMV9Cn+WlywYR1d3aY6afy46+e7fpzX89nHz/n1z7Px2NFXnkG+seHq6HXj51c0XL2+Zlx2DjJ247jOrn/n+rGBvrJhQLJ5ete4bBYvqf642q9h7IBDxt/FI8c3C5b6vZ2D/B1VbVnG67tqBfbHKbY2vEl2wsT1bxiL9M+Py94+N9YMbEyvm9igf8t4fNwmMg06q++hDaMNT92pgfXlwOrU6pS9NN07Pz9klV/XcXP+974wNhjX9JVBvnaO8n312HBcu0tjffluX1+xy+fX+bVZODeOy85tvRIOG5edAwgetcvXh/WVAQZ3/d7OgQjnPUDcMSv0Mx7ccHX+DvtY7/rdmvaLqgsbrsh/vjp3/AisL6+v/vuE9Y6ovrH6e5HB6vu9hufX9rV8XFSwrjyi+nTD2BFfXsDlfJsI9uoFC7rf7lx+1yaCdeuCifv580S1frmCvn5tqR49cd03iAvWlesarpqvtZ0DW32h4erbpQ3Pw37WJoK9+s3qFX1lTIeTGh4L2Tm+w/G7/NnWNXh99l9Yv95Q/dSE9R5dPV1cGnRW192r201c9/XighVxZHV6wyjf8xxY6zMr9Hq3NQxEddHYaF+2W+N96fj1zj/bbhPDzD41LvuydZdmfdeBGnf//KSG59TnNdjep+f88353w+205++yfLJpgyACs3n9xAb9tOqu1Tki06CzeqZePb+ieou4YEn2a3gG/LRxOWs84Z1W3bZhKrKqj1V3meP/e2HD6N0HTFz/8r7yvOkFffWzpzs/fknBDAtlR8MbYhdPXP/ghufbTxqPQXsbl+KoVW7Qv6X6kb0cly7Yy/Kp5j+dH2wG/9QwNsvhE9b9dg26Bp3V9ciJ6/3DWOgDe3dUdcbYZJ9R3anhyvjpDYOt7MupDVfD5lVw7hib9NuPxfvnxq8v3OXrS3b5aApF2Phu6Csjtb9vL+ts6StX4G87fjy54Qr8zo+fmvPr2tugdUdX9x2X3V2xS7P+ieqj4/KxhkEigT27sXpz9R0Te4XfFNn6s0UE69Jh1RebdrvbDzU8Cweb3c6r4WdUZ1Z33uXzE+bw799ubJjn5cSGK1A32nTAAvt08x0z4+JdmvWPNYw6//FcdYedntQwfeW+3FAdm9lNNOisim9v2rRpO8Yi/zKRsYkcMTbfd+krV8TPGL930Ar+vw/O4yTA5nLQWPyvxmB3N+7StH98bNx3fn21TcEmclLDHXVT+rhHVX8rsvXFLe7r0zdPXO89mnM2sMMbnge/+/jxbg3PiN9mFV/DzlvRd057ArDZfHfD40Cn9ZVHg05p+hgas7wZcI9x2d2FDc/afni3j1fZPGxAF1UfqO4zsWfQoGvQWQWPmLjem0TFBvI9Dc8y3m1syG+/Sv/vNd3yQEduQQc2qxurv9xLfXnKHhr3nV8fPufXcdtx2b0++kz1DWMDDxvJ301s0B8pqvXHLe7rzylNH4HVLbdsJG+tHrhC//a26ry++rnHj41N+KWiB5ir48dmfefjSHduGA/k9OY3nVwNz+AeVt0scjaYb2oYCHqKeY+RwwpzBX39mXr1/KrqHeJiA/m3ZTboOxqueJ9TfWRsvnd+frl4AVbNpePyzj382dF99ZSWOz+/fbM/6/4RzTkb1Nuqa6tbTVj3YRkwWoPOQjTob6m2i4sN5CMT19tend9XBhDadTChL4kRYKFdPjYfb9vt+8f21dNh7pyF47RbqGc/MufXtl/DFXlTwbHWtjXcWfioib2DBl2DzgrZWj184rqeP2ctHF/dq7p3wzy9fz/Hf/vDu329o/pkw5X1c8aP547LNpsCYEP5YsOdgbvfHXjg2Kif2VcPGnqHFWjQ71O9q+EOrPePywfGxeNQrLY3TWzQH97wWLPBbGEF3GvcuaYsZ4mLFXZEwzNQP98wSNCFu/0OvnjO/9/R1XOrH2gYLO5QmwCAvTi44Wr3PD35Fuquz1WvqZ5VPbT5D4QHu7vnDH3B3cQFK+NnJu6EnxEVc3Zowzuwz65eV31+wu/h+8QGwAbywhkaoi+P58rXjU37A/PGMvO1ZWI99uXqp8UFK+PVE3fCPxQVy3Ra9YTqf1dvr66bsSj5csPouQeIEoAN4l+WcC7cdbm24dn6/1V9b8Nt+LAcr5z4u/fnooL529LwfNOUnfAHxcUMDm24He+Xqv9bXbbMAmTX5V7iBWCD1GEfnuP5cedyafX66r82TI97iKiZwZMm/p5dJKr1dbBhfbhbwyBYU5xSfVZk7MUx1QOqBzXccvc1ze9K946GQXneMy6vHht+ANgIjmoYCPU+u3w8o9mngNubbdV7G0boflvDXWymAmVv7lh9YuK6Z1YfFRnMz0827R2yT4qK3ZzccLv67zW8yXNz83vnf+egOP+54Sr8EeIGYJPZ16Cpy1lurj5U/W7DbfG3FTe7+dzE36UfFxXM159N3PnMc7i5bWl4h/THqrMb3rCZV5FwVfXm6jnVYxUJALBXJ1ePa5h95B+rq+d4Pj5/rPd+tGFeeHfEbm5/MvH35pWigvm6aOLO9yOi2nTObLjD4i+aPk7BvpabGuZ3/f3qhxum7dsqagBYkv0aHlf8kepFDXOn3zSnc/YlDYOAeX59c3rKxN8Tj7/CHN15hoP06eLaVF7ZfE7unxn/rZ+o7uckDwAr7tDq/g1vsv9J029V3ttVdTanM2f4PTFzAMzJ1BEazX+++Tx9CSfxHdU5De/gf191qhgBYCHcofqB6iXVuTOc218quk1rS8NdFGZ6glX0iok73Z+KatO524Tfi+uqN1XPrh5eHSY2AFgXDhvP3c8ez+XX7+Vc/72i2tRekzdyYFV9YuJO9xOi2nS29O+fO7+hYUCaX9GQA8CGa9gfWf236p+qGxvujDtRNJva0yb2CueICpbv1uOBd8pOd5a4NqU/bpgr9deqh+X5cQDYLA6tHrgC/+7tx3+b9eHeTZ+27yhxwfI8euIO98VMs7HoTm545hsAYJG9qeERuTc0DGJ3e5EstK3VlRN7hkeJC5bn1ybubH8jqoWzf/WQ6jeqD+6yrc4QDQCwoG7V8Ljc7rXmv1XPGWub/cW0cP5+Ys/wbFHB8rzJzrauHF89uXpdwzvPe9pWzxATALCgHtO0AWhfN9Y8x4tsIfx6LurBittaXTVxZ/sWca2ZO1XPangOfPuEbfUmkQEAC+oFzTZ96/axBnpadTvxrZnH5LFYWHFnNX1e62PEtaruWP3seEK6ecYT2fUNt48BACya51VXzFjb7Nqsv7X6T9XpolxVx8+wnTxuCUv0IxN3so+JalXct+H2oQ8v8aS1o3pv9avV0eIEABbU/tU3Noyj84Gmzyi0p+fWf7W6j0hXxfkTt8sPigqW5kUTd7KzRbVi7lT94jKa8i+O2+eHM0cpALA+nTTWMmePtc1SaqIPVf8lV9ZX0h9P3BYvEBUszfsm7mQ/Jaq5OqNh0L2PLPEEdO749+/bMI4AAMBGsXWscZ5dfXSJtdJHxr9/Z3HO1dMn5v9uUcHsDmzPU1zsaflacS3b8dVTG56bmvWZ8i+PJ6jfqL4uA28AAJvDlurrG6Zf+9gS6qebq3+ufqI6TpzLdr+mj4dkqjyY0b0m7mA3jM08szuxYcTR9y7hhHJTw2jsT6tOFSUAQKeOtdGbxlpp1mZ952jwHgtcmoOqGyfmfXdxwWx+NLeorNSB6z9Ur2/6HQq7DvL29uqnq1NECQBwi83606t3NvsgczdUf119Vy5Ezer9GSgOVsTvTty5XiSqfdpSPbx6VXXdEpryt1VPro4VJQDAzG491lJvW0KzfsVY795XjJO8bGKuzxMVzObtE3eup4hqr45tuNr9wZb2TPmzq7uIEQBgbs6sfqWlPbP+8+Lbp5+amOU/iwqm21pdM3Hn+npx7dGJzX4L+6eq5zY8/w8AwMq6T/WbYw02pVa7v8j26QETs7wyAxvDZGc0faCyQ8S1V1PuQvh89fzxgO8gBQCw+rZU31D9dnXRXmq2c8Q0yWFNn5HInPQw0fdO3Kk+LKpb9GN7yW1b9VfVd1QHiAkAYGEcMNZorx1rtp3128+KZrKpjw98t6hgmudO3Kn+SFS36Ijq2l3y+kj1zOoE0QAALLzjGkaCf2+mXpvFn03sJX5dVDDN30zcqZ4pqn36vYaRPz2rDwDAZvCfJ/YSfy0qmOYzE3eqh4kKAADYxaMm9hLniwr27Yimzw/pVh8AAJjdfhv4Zzt5Yi9xc3WoXwW4ZfefuENdJioAAJjZIQ13rJ7dMHvSRnT5xJ7ia/w6LJatIlg4d5243kabauKO1Qurx/kVAABgBT2xul31/dWHqj+oztxgP+PUXuEsvw5wy36rae92vWCD/LyPrt7UV27r/1DmIwcAYGXs3/Ds9Z7q67eNtelG8JKJPcVz/UrALXvjxJ3pp9b5z/mI6u/38rM90q8BAAAr4Lsm1Nn/MNaq69nPTOwpXudXAm7Z1BHcv2kd/mxbqu+o3j/hoAgAAPP2U9XVE+vt91bfvk5/zkdO/Bkv8CsBe3dk00dwP2Gd/WyPqN418We7vDrJrwMAACvgmOqXGwZdnlKbvqP1d3FslpHcb+VXAvbsfm28EdwfUP3TxJ/rwuqZDVPNAQDASrpV9bSm38H6Dw0zLq0XU0dyv69fBdizH5y4E711HfwsD2kYaGPKz/PuhgE5zCoAAMBq2zrWou+eWLu+rfrGdfBzvXPiz/NEvwKwZ786cSd60QL/DHet/k/TbtV/Z/WdGnMAABakUX9s0x7L3FH9eXWXBf55Xjaxt/glmx727E8n7kTPWMDXfnJ1drV9YmP+TTY3AAAL6hFNu6K+vWEe9dsu4M/wcxN7iz+yuWHP3jNxJ3rMAr3mw6vnVzdOeN3vqR5uMwMAsE48vGE0933VuddVz6kOW6DX/rimD4IH7MHUgRzuuiCv99HVeRNe7/nV9+dWdgAA1p/9GsaK+uSEuvfj1bcuyOu+58Te4lKbGP69Y5s+FcLBa/xa79G0kdnPrx6vMQcAYAPYOta2F0yog99c3X2NX+9hTZ/C+UibF77a10/ceT6zhq/x8Oq57ft29i9Wz6oOtVkBANhgblX9l/Z99+sN1X9vbecZv2hij3EfmxW+2hMn7jxvXoPXtqX6voZ5ym/ptW2rnlcdZXMCALDBHVP9TnXTPmrkz1ZPWKPX+NaJPcbjbU74ar88ced58Sq/rjOqt094Xa+qTrcZAQDYZO441sJT5k+/8yq/tj+c2GP8vM0IX+3siTvPs1bp9WypnlxduY/Xc171HTYfAACb3OPa9/PpV1Y/Ntbaq+G/TuwxXmrzwVdbpNtPplw1v2xs4Pe36QAAoKoDqqdVV+yjln57dZdVeD3/cWKP8Q82HXy1T0/cee69gq9h51Xzq27h/9/RcLX/NjYZAADs0W2rV3bLo6hfVf1EK3s1fepA1J+wyeAr9q+2T9x5jl6h13Bq9ab2PW3aQ2wuAACY5GHt+7b3n1nB//+EiT3GDa3ebfew8E6euONctUL//5Pa91Xz32ltp4gAAID16LDqd9vz1fQLxj9fKVuq6yf2GifaVDC4/8Sd5pwV+v9fuo//8342EQAALMv9xtp6Z529fewDVtp5E3uNr7WJYPA9E3eav12h///whudOXDUHAICVc2j1vOrmhqvqq+EfJ/Ya32XzwOA/tfbTH3xtta2vTJ32YJsFAABWxDe0ehfCXjGx13i6zbL2TJG1GG43cb3PruBreE/1C9WdGgaquNZmAQCAFfGOVfy/pvYQt7NZNOgsToNe9T9sCgAA2FCm9hCniGrtbRXBumrQPyMqAABgBRp0V9A16IxOnrje50QFAADMYGoPcbKoYHiTZHvTBm44TFwAAMAMjprYa2xrmDcdNrXjJ+4w14gKAABYgusm9hzHimptucV97Z0wcb1LRAUAACzBpXPuTdCga9BFBQAALMHUXkKDrkHXoGvQAQCAJdivekZ10Jx6ieNFqkHXoGvQAQCA2RxQvar6rer11SFz6CVcQdegb3pT36Xa2061X/VL1aGiBACATWH/6uzqcePXDx+b9QP2sv7UZ9BdQdegb3rLuYK+pXpx9SsN75rdSpwAALDh/WH1vbt979url7bnqdJcQdegswoN+nOqHxk/f6gmHQAANoW/qW7ew/d/YOwRNOiwRO9p2pyED9rt7/3kXtZ7c954AQCAje77xyZ9Tz3Bk3db96ETe453ipXN7vyJO8sZu/ydb62272W9J4kUAAA2hSfvpSe4qXrYLuudNbHn+JhI2ey+NHFnOW5c/w7VZXtZ59fFCQAAm8pz99IbXFKdOq5z0sSe41Jxspltbe+3pey+HFAdXH1wL3/+svY8IAQAALBxbWkYNG5PPcJ7qwPHPmJKz7FNnGxmR07cUa4Z13/eXv78n9r7lAoAAMDGdmD19r30Cr85rnP9xN7DoNNsWqdO3Ek+W33HXv7svOoYUQIAwKZ2bHXBHvqFHdVjqosm9h4ni5LN6l4Td5JzG54h2f37N1T3FSMAAFDdr7pxD33D56uPT+w97iZGNquHNH2whj19/+kiBAAAdvHM9j5o3JTe44EiZLP6zok7yZ6W14oPAADYzZbqr5bRZzxahGtnqwjW1FFL/HtfrH5cfAAAwG6+XD2lunyVexQ06Ju2QX9Gwy0qAAAAu7uo+lkNugad2Ry+hL/zd9XZogMAAG7By6t/XMLfO0J0GvTN6tAZ17+p+imxAQAA+/Dl6qnV9hn/3iGi06Br0Kf5/eoTYgMAACY4t3rxCvcosGG8uOmjKV5RHSsyAABgBsdVV87Qd7xQZGvHFfS1Ncu7U7/XMHo7AADAVJdVL5phfbe4s2m9pmnvYm2rThAXAACwBLcZe4opvcdfiGvtuIK+tqa+O/WmTKsGAAAszeerf5pzj4IGfcOZeov7X4oKAABYhtfOuUdBg75pG/QPiQoAAFiG92vQNejcsqm3j1wnKgAAYBmun3OPggZ90zbo14sKAADQoGvQWTkHTFxvm6gAAIBluGnOPQoa9A1nv4nr3SwqAABgGbbPuUdBg65BBwAAWIKpPcX+otKga9A16AAAwMpxBV2Dzj5MfXdKgw4AACzH1J5Cg65B37Sm/vJvFxUAALAKDbpb3DXoGvQ57UwAAAB74hZ3DToadAAAYAG4gq5BR4MOAAAsAFfQNeho0AEAgAVgkDgNOvuwZeJ6B4oKAABYhoP1iBp05uMIEQAAAMtwpAg06NyyL09c73BRAQAAyzD1ot+XRaVB16DfslNEBQAALMPJGnQNOrdsx8T17iAqAABgGU6bc4+CBn3DmTqS4umiAgD+f/buO9yWvKzz9ud0zjlnaJomhwYVESQLCoii7TiABHXADJiYcXyVMQ28vjMOjKKkETGDiA4MozYg2OSMEpomdtM50HQ+Hc/7R9W2N22HWnuvne/7uupa+5yzzt5rf2tV1fOsqvr9AJbhbhOfd6OoNOga9Dt2iqgAAIBleLAGHe7YZQ33eNzZcqGoAACAJdpWXTqx97hUXGvHGfS1dd3E5x1WnSwuAABgCe5VHTTxudvFpUHfqq6f4blPEhcAALAEs/QS14tLg75V3TDDc79bXAAAwBI8eYV6FNhUPtW0+0B2NEx3YDR3AABgFncbe4mpfccnRbZ2nEFfW9fM8Nxt1TNEBgAAzOCZYy+xEj0KbCrvavonWTuqr1S7iA0AAJhgt+qcGXuOd4ht7TiDvraunfH5x1c/IDYAAGCCp1VHr3CPggZ901jK5SO/2GyXqAAAAFuz1/uFVepR0KBv2Qb9/jmLDgAA3LEfbJj/fFbOoGvQt6ylvvl/s+F+EgAAgFvbfewZlsIZdA36lrXUN/+J1Y+LDwAAuA0/VZ2gQdegM5vlXD7ym9VdRQgAACxyYvVra9SjoEHf0Jbz6dTe1X8XIQAAsMjLq7006Bp0ZnfFMv//U6pniBEAAKieWX3XMr/H5WLUoG9VX5/D9/iD6mRRAgDAlnaP6hXrpEdBg75lG/S9q9dVu4gTAAC2pF2rPxp7Aw26Bp01fvM/pHqJOAEAYEv6b9U3z+l7XSZOtqr7VTvmuDxPpAAAsKX85Jx7inuLlK3quDlvTNdW3ypWAADYEh5WXTfnnuJosbJV7TfnjWlHdXEGjQMAgM3uXtWlK9BP7CVatqpt1Y0rsFGdWx0vXgAA2JROGGv+efcR20XLVjf1U68bZty4/qU6VLwAALCpHF59esbe4PqJz7tQvGx1X5y4sfxWs38C9onqYBEDAMCmcGjDibhZ+4Jfn/i8z4mYre7DEzeWb69euYSN8bMNn7IBAAAb1xHVGUvoB/5H9eiJz32/mNnq3jpxY/mBao8ZGvrFy0eqQ0QNAAAb0qHVR5fQB7yr2rV62sTn/42o19ZOIlhzU+/zOLxh0IbvbrgsfhYPqk6vjhU3AABsKMePtfwpM/6/s6ofbBjLauoVte5B16BveRdNfN5h4+P51RNm+H8L7lG9Z3wEAADWv3uPNfys0yhfXH1HdcGteol59SZo0DetWc6gL/hC9V3VVTP+rOOq91WPETsAAKxrT6jeWx0z4/+7ovrO6szb6SXm0ZvApvXvm3Y/yN/exv/9juraZr8X5Ybqx0QPAADr0k9XNy6hzr+mYUC4W5s67tWpomermzqi4gdu5/8/YYlN+o7q96rdrAIAAFgXdq9etcTa/prqsbfzfWeZOQq2tPtM3Fi+fAff4/HLaNLfVx1tNQAAwJo6tvrgCjTnVWdP/D4nWw1sdYdO3FiuvpPv813LaNIvyKdlAACwVh7dMEDbUmr5qxtufb0j2yd+rwOsCra6nZp+f8m+d/K9HlldvsQN+/rqBdU2qwQAAFbFtuoXGsaIWkoN/7Xq2+7kZxww8XtdpxeAwXkTN5p7TfhepzSMvrhjicvfVgdbJQAAsKIOrd62jLr9vOp+E37O/SZ+v7OtEhh8YOJG84SJ3++k6nPL2NjPrh5utQAAwIp4ZHXOMur1z1R3nfiznjTxe77XaoHBGyduNP9hhu95UPWOZWz0N1Uvr/a2egAAYC72qX53rLWXWqf/fbX/DD/zxyd+3z+3emDw3yduNL824/fduXrJMjb+hUtnvscqAgCAZfne6vxl1uYvbvb7xH9r4vf+f60iGLxw4kbzh0v8/j/dMAjcUncEN1d/UO1nVQEAwEz2r1491tRLrcevq35siT//jyf+jJ+2qmDw/RM3mrcv42c8rOmD0d3RvelPsLoAAGCSJ7a8e813jP//Ict4De+e+HNcNQujb5m40XxumT/nyOo9y9xB7KheVx1otQEAwG06uOlnru9oeVd1+DJfy5cm/qxTrDYYHDVxo7l6Dj9r9+plLe8Smx3VRQ2D1u1k9QEAQDWMAfW86pJl1to3V79d7bbM17NTw+XxU37moVYf3LLhTL1HfF5zlD+m5Q9SsaM6o3q8VQgAwBb3hJY31fHC8tXqEXN6TUdO/JnXNPvgc7CpnTVx43ngHH/mcc3nkvebGy57P8JqBABgizmq4XK0WiQTAAAgAElEQVT25V6huqP6h5Z/SftiU2+l/bzVCN/o9Ikbz6lz/rk7Vz/bcPn8cncol1c/V+1qdQIAsMntVv1idcUc6uirqxc0/9tHnzbx57/D6oRv9IcTN55fWqGff1LTR3i8s+WzGe0dAIDN64nN53L2HdU/Vieu0Ov81Ymv4VVWKXyjX5648bx2hV/HqdWlc9rZfLB6slULAMAmcWr1z3OqlS9p/lfH3trrJ76WF1m18I3+/cSN592r8FqOqP56TjueHdV7q0daxQAAbFCPrt43x/r4Ta3O+E1TX/P3WcXwjb5p4sZzziq+plOri+e4IzqterBVDQDABqrRT5tjPXxRK3/WfLELJ76u+1vV8I0OaPqI6Xuv4us6uvqz5jMq5Y7qpoZRLk+0ygEAWKfuPtbAN82pBr55rIGPXMXfYf8ZXts+Vjn8W5dM3Ijuuwav7eHVJ5rfp4fXV6+sjrHaAQBYJ45rGPPphjnWvR+tvm0NfpcHTnx9F1jtcNs+OHEj+t41en3bqmeOG/G8dlg3VW/Jpe8AAKydbxpr0nmdMd9Rnd1wOfu2NfqdTp34Ot9j9cNt+9OJG9HPr/Hr3Lt6cXXdHHdgCzsHo74DALBanjzWoPOsabePtfLea/y7/ceJr/d13gZw23594kb0ynXyeu9evW3OO7Qd1UcaztTv5C0BAMCc7TzWmh9dgTr2/1QnrZPf87UTX/OveEvAbXvmxI3o9HX0mrdVT2+4hGclGvVTNeoAAMypMf931cdWoG79SsO0ydvW0e/7/omv/WneGnDbTpm4EV22Dl/77tXzm+/96QvLmdVzq728RQAAmNHe1Y9VX1iBOvX86qer3dbZ77ytunLi73A/bxG4bXs1fWCKo9bp77Db2EyftwI7wGur19uJAAAwwf3H2vHaFahLzxtr3t3W6e9+3MTf44aGE23A7fjixI3pcev899i7elH1tRXYIS6+T31XbxkAAEa7jjXiR1aoBr2w4arR9X5l53dO/H0+5y0Dd+wtEzem52+Q32ffsVH/+grtJM+vXlId660DALBlHTfWhCtxu+WOsZZ9UbXPBsnj5yb+Xm/21oE79tI21kjuUx09vubrV2ineW3DFBHf5C0EALBlfEvDZezbV6jGvL56RXXkBsvlf038/X7DWwju2LPaeCO5z+L46uXV1Su0E124/P0nqwO9nQAANp2DGgZmW4nR2BeWq6rfaeNepfmBib/n072d4I5908SN6Wsb/Pfct+Ey/XNWcMd6Y3Vaw1Rt7lUHANi4dhtrutPGGm+l6sdzxhp13w2c1SwjuD/AWwvuvHG9eeIGdcQm2dk+szpjBXe0O6pLGy6xv7+3GADAhvGAsYZbqYGHF5bPjjXpbpsgs2Mn/s43ZRpjmOSsiRvVd2yi33mn6snVB1d457twCfzzq4O91QAA1p2Dx1ptpUZiX7x8YKxBd9pE+T1x4u/+RW81mOb/TtyofnET/u47VU+p3r0KO+TLq1dVD/SWAwBYc6dUr66uWIU68F3VdzdcDr7Z/OeJGfxvbzmY5rcmblR/uclzuFvDdBmXrMJO+uzqZdXDvP0AAFbNw8Ya7OxVqPcuGWvLEzd5pm+amMd/8faDaU6duFGduUXy2KPhnqCPr8KOe0f1merF1T28FQEA5u4eY6P85VWq7d431te7b5F8vzQxl+/xVoRp7jZxo7q52m+LZfOghoFCrl2lHfqnx2b9RG9LAIBl1bcvHmur1ajhrhlrxgdtsZwPbPqA0yd4W8I026qvT9ywtuol2cc13Apw4Srt5G+s3l79aAaXAwCY4pDqudU7W9mp0RYvF1S/UR2zRTN/RNNnONrmLQrTTR0k7ae2eE67V8+o/rHpnxbOo1l/V8Poosd7qwIA/KsTqhdW/7SKTfnN44cAT2tzTJO2HC+YmNk7vVVhNv9j4sb1WlH9q6OqFzXcm79jFZcvdssAcz6JBAC2km3dMtDbF1e5BvvnhhMmR1oN/+p1E7P7b6KC2Txr4sb1MVHdpoV71a9c5QPF2ePPfXK1q9UAAGxCu461zitbndHXFy9XtDXvLZ/qkxNzfIaoYDYPmLhxbc+lPHdkz4ZRO09r9S6BX3xvz+vHn7+3VQEAbGD7jDXN68caZzVrqpvHWu7Usbbjtu1eXTcx0/uKC2az29h8T9nAvklck9y/4daBi1f5oLKjurx6c8NAKcdYFQDABnDsWLu8ueHM9WrXTxdVv6OZnOxbJ+Z6bbWLuGB2H81AcSth94Z5H/+yYQqOHWuwfLJh/s9H2EECAOvErtUjq5c23N+9FjXS1dVfVE9p68xbPi8vnJjxh0QFS/N7EzeyPxXVku3RcA/V68cDwlociK5puGzrRdU9rBIAYBXdc6xBTmvtTlxcNdZiT9aUL8sbJub9clHB0jyz6aOIs3yHVj9Rnd7q36+++B6rjzbM3/nQamerBQCYo50bRl3/zYbBhteq5rmpYVrhH6sOtlrmYuqAfU8TFSzN3WfYyR0urrk6rvrF6hNrdNBa/Iny/61+vjql2smqAQBmsFPDiOe/WP19a3fF4OIZiH6h4f525ueYGdbBXcUFS7Ot6QOaPUlcK+Ze1X+s3t/afcq8sFxSvbH68fEDHACAWzu54arAN7X6I67f1pny9+VWvpX2/RPXxwWiguV528SN7ddFtSoOarj14A2t/hzrtze66RsaRli9t9UDAFvSg6rnjzXBWsxWc+vlyvG1PHOsnVh5vz1x3fytqGB5fnXixnaaqFbdgdUPVX/d2l8utrB8pvqf1fdlOjcA2KyObThj+rvVZ9dJDXJ1wxn7Z4w1Eqvr9Inr6ZdEBcvz+KbPs+3+5LWzV/W9DSOQfm2dHCh3VF+q/qj6D7msDAA2om0NI60/d6wzvrKO6oxLxzrje8ZaiLWxW8Pc5lPW2aPFBctzUNPve3aJ8/qwa/XY6mUNZ7R3rKPlwoYz/i+oHpw52AFgvdml+uaGOa3f3HA723qqJT5T/Y+x1lFHrA+nNH08gP3EBct3xsSN7sdFtS4dWp3a8Kn3ZevsIHtD9ZHxw4RTc58YAKy2g8Zj8MvGY/IN66xW+NpYw5w61jSsP8+fuC7/WVQwH384caP7c1Gte3s03LbwsurMdXYA3lFdV32g+v3q2Q2X1Ll1AgDmY6eG2WGeU72y+mB1/TqsB85sOEv+HWPtwvr21xPX66tEBfPx7KZPm7BNXBvKSdXPVH/X9HuHVnv5esO8qb9WPbE6xGoDgEkObZgK99cbBvT9+jo91l9T/d/qp6u7WW0byk5Nn0rv6eJa/zRzG8NdGgb7muIe1edEtiHtVT2q4Qz7I6r7ruNt9AsNn/ovLJ9oOAMAAFvVbtUDq29ZtJy4Tl/rwuXO7274EP4fG04UsPHcr/rkxOceW50jMpiPs5r2ydhzRbVpHFb9YPXq6outz0/cF5Zrq/dVv9Nw2d6DxkIFADaj3RsGW/3hhkvB319tX+fH6i80XFb/73Iv+WbyU02f2QeYoz+ZuPH9qag2dcN+6nhw/fI6LwIWlvOqt1Qvrp5cHW41ArDBHD4ew148HtPO2yDH4C+NNcOpYw3B5vSGie+H14lqY3CJ+8bx3HEne2fOrY4R15bYdu9TPWZcHlHtuwFe983V56uPj8vHxsdLrVIA1oFDGi5TP2V8fGDDPdkbYcDUKxouWX/HuHx6bMzY3PXgBU37AOZHqv8lMg0683OP6rMTn3u3hkui2ToW5kz9tuph4+PBG+j1n32rpv2T498BwEo5vrr/rZrxYzfQ67+kem/1nnH5SHWj1ao/uB0nNdzmgAadOa6rC5t2z9BzchkLddStGvZTNtg2f0PD2fZPV59Z9PjZhjPxAHBndmqYMvRe1b0XPZ5U7bqBfo8dDR9gLzTk72241J6t7T80beq0C6ojxaVBZ/7eVD11wvP+LNMo8G8dX3372LA/vOFT1424D7ik+pexYf/UosevW8UAW9qBDbd/3XvR433bWFeULW7IP1udvmhxZRm39pfVD0x43hsaBgdEg86c/XT18okNzOE5y8gdO7ThzPpC0/7AhkvlN6pzGs6w/8vYsH+mOlPjDrDpHFCd3C1nw+87Ph69gX+nG6uPNpwdP318ND4Ld2TnseY/YMJzf7J6hcg06MzffcbmY4oHNsxNDVPtUT2g4V72heWkTfB7XVCdUX1uXBa+/ko+xAJYz83H8WMjfs/x8e7j1xt9RpAdDbdwfWjR8onqOqudGTy4+vDE59634eQFG8AuIthQPtVwlnDKKO2P16Azo+3VB8ZlwUG3ati/uY03d+oR4/LIW/39dYua9jMbLiVc+POV3g4Aq2K/sfk+ueHWq5MXNeO7b5Lf8aJbNeMfqi6z6lmmJ0x83lc15xuLM+gbz+uqZ0143juqx4qLFXDXWzXsp1R7brLf8dyGM+1faJhH9ouLHq/wFgCYyf7jsePERY93GxvyozbZ73pNw4wkH6o+OD5+2VuAFfDuhtsUp/QOzxGXBp2V8/TqTyY8b3vDoCjXiIwVtkvDpVPf3nC51QPGomuzXqFzya0a9oXHLzaMqGvOWWAr1pNH36oBX/x4yCb9vW9suPrqEw1TnJ3ecCuiqc5Yafs0jFGw28Te4c9EpkFn5RxenT9x3T2h+nuRsQb2aBgz4YFjw/6A6n7jAWUz2z427Iub9y813O/+1epybw1gg9q/Oq7hvvBbN+F3Gff7m9lV1SfHZnxh+dS434fV9qTqLROet6PhNr+LRLZxuAd947mw4dPZ+0147uM06Kxho/qRcVnsqOpB3TLy7oMaBvzZLB8W7jH+bve6nX+/vmEcifMbzrYvNPALf/58LqEHVt9+DYOCHtUwV/JdFy1HNVyRt9sWyeLmhlucPjoun26YFcSc46wnj5v4vE9qzjXorI63z9Cgw3py3rgs/tT3yIYz7A+uvqnhzPsJbc4rfHZbVPTelpvGfM6uzmo46372oj9fUF3sbQTM6LCGs2gLZ8CPHb9e+PORDaOmbzU7Gu4P/1TDaNgfbjgzfqG3DJukQT9NVBuPS9w3pidWb5144DlcQc8GtE/DWej7Lnq8d5tvMKGluG4sHs9Z9HhBw8B2ix8vERVseoeMjfcx4/F+8ePiv99NVJ3bcDb8X8bHTzWcGb9aNGwwR47vZ7e7atBZZ83L1IEhnl39kcjYJA5sOMN+71s17weL5jYb+YVL58+/VQN/0djcXzwu5t6F9WOPsfE+bGyuD+uWS8+PHhvvhcfdxfVvXDI24Z9Z1Ix/OtOasXn8aPXqCc8zYLQGnVX2ruoRE573pur7xcUmd8TYuN+jW+bRvXvD5ZvcuSu75fL5hWWhgb/kVg39JdUNIoPJdq0OHZvuhYb7kPHvjlj0bwt/3ldkd2pHwy1AnxuXM8blU7k8nc3vb6qnTHje23O7qwadVfXC6r9PeN7V44HfKKNsRXuPzfrJixr3hWVP8SzZ18am/ZKGq3m+1nB26rYeF38NG71mOrA66A4eF74+eFFDfqDoluya6sxbNeGfG//OpelsRXuNx94pNcxPV78rMg06q+fE6gsTn/ud1d+JDL5h33d8w1n2e9yqeT9aPCva2N9RA39Fw1R0lzec1V9Yrqi+njnmWf52f0DDiOX7Llr2X7TcWQPOyjhnUeP92W45M3627R6+wdTp1RrrnLNFpkFndZ0xNhR35veqnxIXTLJP/3aO34XH4xsuV2VtXHmr5etj87747xY3+NePz7lp/LsbGuYy3l5d23AG7nqxrku7N5wp2mv8et+GmWcOaBhtfP+GcVgWN9iLm+79bqMZ30esa+aG6isN00p+8VaPXxq3S+DO/UH1vAnP+3TDrX9sQKZZ29jeOrFBf3LDZS4+hYY7d1X1z+Nyazs33Nd+ew38/uJbUQuN1rxdMTbxl42PV4yN+9VjI799fF8s3Ht/ecNcyXXLwFM7xg8DWvQ9WvShQIu+Z4s+JLi99+ANd/JaZ7Hz2Kjell3voHHds2HAshpuF1kYmHSfbvmgar9umZ7rgG754H/hsu6dFm0XCz9rj/F7L3zPhe9x4J28Vta3y2+j+V54PHsJ71vgG20ba/qpPQIbeEWzcT2qeufE597/dhoOYH4OWdSs36VvnGf4hIazgQAb0TUNZ8HPGpezG+YQX2jELxURrKhTqo9OfO63V6eLbGNyBn1jO73hjM0BE577JA06rLhLxuVDt/Pvhy5q2I8bm/bjF/3ZdHHAWrl0UeN91qJmfOHPl4gI1tSTZtiW3yeujcsZ9I3vjU2bRu191beJC9a1fbrlbPtC037suBxeHZOz8MDsrm4YiO3C8fHsRY33QjNuVHRY3z5YffOE5/1F9e/FpUFn7Tyret2E5908FvnniQw2tH3HRv2IhhHnb/14ZHWURh62hGuqc6sLFj0ubsQX/v5KUcGGdmzDh2lTerdnVH8qMg06a+eghvmId57w3OdXLxcZbAn730YDf2TDZfaHjn8+ZPx6N3HBunF9dfG4XNBwafnF1fnjct74eG63DEYIbG4vrP77hOfdWB3WLQOYokFnjbyv+tYJz3tn9RhxAbeye8P97weOy8JZ+Dv6MzDN+WOxfNmi5vr2/nxpdZ3IgFt5d8PAb3fm9InPYx0zSNzm8FcTG/RHNHyqdpHIgEWuGxuFqbfAHDI27Mc0XMVz4IRHZ+nZDK4fG+mv3cbjrf/unIaz3EY3B5bjqOphE5/7RnFtfM6gbw4nNExzMmV9Prd6tciAVbbPnTTxB3TLPOf7NsyFfcCir/cQIXNwbcP92Fc2zIJyxaI/L/zdHTXdV4kQWGU/Uf3ehOfd3DC47Lki06CzPnyketCE5/1d9Z3iAjaYXcdm/YCxYV/czO8/Lgt/3mf8867j13tUe1Z7N5zJ369h3I4DxbquXVbdNDbR1zeMMn5ttX1slG+oLh+/XmiwLx+XhT8vNOCXjY83ihXYYN7etFtU3189VFwbn0vcN483TWzQHzMWpQaPADaSG7rljOY87Tw27LuNDfyeY0O/z9jgH9DwYfZCM7/T2PwvHEP3XfQBwj7j17t3yyj6C9+v8e92H79e+LDgtux7B8fn/cfXMIubx6b1ttzY7Y/wfV3DKOG3/nqhSW78u4V7phea5sbG+Kbx68vH17DQdC+8nhvG/7N9/J5Xj4344v8LsJUdWj1yhl4AWEdOqnZMXH5IXAAAsK798MTa/uaGW16BdebTEzdin7ABAMD69paJtf3HRQXr04snbsTbGy7bBAAA1p/DGm4FmlLb/ydxwfr0gKZf5v5scQEAwLr0vBnq+nuKC9avL0zckE8TFQAArEvvnljTf1pUsL792sSN+abqGHEBAMC6cpeGgd+m1PS/LC5Y3+7R9Mthfk5cAACwrvxS00dvv6u4YP376MSN+mOiAgCAdeUzE2v594kKNoafa/pZ9HuLCwAA1oX7z1DH/5S4YGM4qrpx4ob96+ICAIB14aUTa/gbqkPFBRvHuyZu3GeKCgAA1ty26ssTa/h/EBdsLD/S9MtjvlVcAACwph4xQ/3+Q+KCjeWg6rqJG/jviwsAANbUayfW7tdU+4kLNp43TdzIL6/2EhcAAKyJ/aqrJtbufy6uzWsnEWxqfzHDDuF7xAUAAGviqdXec67xgXVmt+qipn0S905xAQDAmnjPxJr9vGoXccHG9TsTN/abqxPFBQAAq+oeTR8c7qXigo3tPjNs8P9FXAAAsKr+a9NPqN1dXLDxfWTiRv/VamdxAQDAqtilOn9irf4+cW1+BonbGl4/8XnHNMy/CAAArLzHVkfMuaYH1rmDqmub9sncm8QFAACr4n9PrNGvztznsKm8ceLGf13TP8UDAACW5ujqhok1+p+KCzaXxzd9sLhfERcAAKyoX5uhPn+UuGBz2bk6d+IO4MsZnwAAAFbKLg0DNE+pzc9Sm28dVvTWcVP1yonPPaF6ksgAAGBFPKVhgOYp/qBhijVgkzmyur5pn9S9TVwAALAi/mFiTb69OlRcsHn91cSdwU3VXcQFAABzdVLDGfEpNfmfiws2t8c0fTCK3xIXAADM1UtnqMcfIS7Y3HaqvjBxh3BetZvIAABgLnavLphYi59RbRMZbH4vbPqnds8SFwAAzMWPzFCH/4y4YGs4pLp24o7hw+ICAIC5+NjEGvya6iBxwdbxh7n3BQAAVsujZ6i/XyMu2FoeOsMO4g3iAgCAZfnrGervh4gLtp4PTtxB3FjdVVwAALAkJzd9arX3iQu2pqc3/VO8/yYuAABYkpfNUHf/O3HB1rRr9dWJO4rLq/1EBgAAM9m/umJizX12tYvItq6dRLCl3VD9wcTn7pcp1wAAYFY/XO078bmvaLi9FNiiDq+2N+0Tvc/mQx0AAJhq5+rzTZ9a7RCRAa9p+j0xPyAuAACYZJYxn35fXEDVA2fYcXxQXAAAMMnHJtbYN1f3ERew4O0zNOmPExcAANyh75qhvv47cQGLPcUOBAAA5uYdM9TX3yUu4NamXoKzo3qIuAAA4DZ92wx19YfFBdyWp82wI/krcQEAwG362xnq6lPFBdyWnasvTNyR3FTdXWQAAPAN7tMw6NuUmvrMTGMM3IGfbPqnfa8WFwAAfIPXzVBPP1dcwB3Zu7p44g7l2upokQEAQFXHV9dNrKUvqPYUGXBn/nPTP/X7fXEBAEBVr5mhjv5FcQFTHFxdlbPoAAAw1XFNP3t+RXWAyICpfrvpn/69QlwAAGxxr56hfv4tcQGzOK66vuln0Y8SGQAAW9Sx1faJtfN2tTOwFL/f9E8Bf1dcAABsUa+aoW5+ubiApTi26ffRbK+OERkAAFvMXZp+5ek11ZEiA5bqD5r+aeD/FBcAAFvMK9XLwGq5a7N9IniEyAAA2CKObvq959c1zJMOsCyz3FPjU0EAALaKWc6eG7MJmItZ5nS8vjpRZAAAbHL3qG7MeE3AGvjDpn86+FpxAQCwyf3xDPXxq8QFzNPxTT+LflN1f5EBALBJnVLd3PSz58eKDJi3P2r6p4R/JS4AADap/z1DXfxqcQEr4bimj1K5o3qoyAAA2GQeNUM9fHXmPQdW0O/MsEP6J3EBALCJbKs+OEM9/FKRASvpkOryGXZKTxAZAACbxJNnqIO/Vh0gMmCl/cYMO6YPNHzSCAAAG9m26qMz1MG/KjJgNexTXTjDzukZIgMAYIP74Rnq3/OrvUUGrJZfnGEH9eVqD5EBALBB7VWdPUP9+wKRAatpj+qsGXZSvywyAAA2qBfPUPd+odpVZMBqe94MO6qvV4eKDACADebI6soZ6t4fFhmwFnatPjfDzuoVIgMAYIN5zQz17qerXUQGrJXvmmGHdWN1P5EBALBBPLi6aYZ699EiA9ba38+w03qHuAAA2CDeNUOd+1ZxAevBKc32yeJjRQYAwDr3xGa7UvS+IgPWi1fPsAM7s9pdZAAArFN7NIzGPrW+/V2RAevJYdXlM+zEfkFkAACsU7/cbLMVHSIyYL158Yw7ssNFBgDAOnN0s02r9ksiA9ajPauzZtiZ/YnIAABYZ944Qz37+Wo3kQHr1Q/PsEO7ufpWkQEAsE48YqxRp9azTxcZsJ5tq94/w07tU9WuYgMAYI3tWn1mhjr2XSIDNoIHNdu0az8jMgAA1tjPz1C/3lDdR2TARvFHM+zgLqkOFhkAAGvksOqyGerXV4kM2Mw7udeKDACANfLHM9StF1cHigzYaH6m2QaMe7TIAABYZY+doWbdUf2YyICNaNfqszPs7P45A8YBALB6dmu2geH+udpFbMBG9bBmm6ril0UGAMAq+bVmu+LzoSIDNrq/nmHHd3V1F5EBALDCTqqunaFO/QuRAZvB0dUVM+z8/o/IAABYYafNUJ9eVh0hMmCz+PFmG3zj6SIDAGCFPGfG2vRHRAZsJjtXH55hJ3hutb/YAACYs4OqC2eoS99X7SQ2YLO5b3X9DDvDPxYZAABz9oYZ6tHt1ckiAzar/7fZLif6HpEBADAn3zdjLfobIgM2s32rr86wUzxr/D8AALAcBzTcRjm1Dv1ytZfYgM3uCc32yeVrRAYAwDK9fsYa9HEiA7aKN864g3y8yAAAWKKnzFh7/qnIgK3k+OrKGXaSX6j2FhsAADPat/rKDHXnpdWRYgO2mv/QbJ9k/p7IAACY0atmrDn/nciArWhb9Y8z7Cxvqh4mNgAAJnrkWENOrTffKjJgKzu+umKGneY51YFiAwDgThzUbKO2X1odITZgq/vxZrvs6PUiAwDgTvz5jDXms0QGUDtV/zTjDvS7xQYAwO146oy15dsbbr8EoDqh2S51vzijawIA8G8dW102Q115WXWU2AC+0U812yedf59POgEAuMW26rQZa8rniQ3g39qpev+MO9Rniw0AgNGs0/i+Z6xBAbgNd6kun2GnelV1ktgAALa8k6urZ6gjv1YdIzaAO/ZjzfbJ5z/mk08AgK1sp+r0GWvIHxUbwDRvnHEH+8siAwDYsv7LjLXjX4oMYLpDqvNn2MneUD1MbAAAW85jqptmqBvPrg4UG8BsvrfZPgn9YrW/2AAAtowDq6/MWDM+WWwAS/PKGXe4b8nUawAAW8G26m0z1oq/KzaApdu7+tyMO96fFBsAwKb3ghlrxE9Ve4gNYHke0Wz3FV1d3UtsAACb1n2ra2eoD2+svk1sAPPxK832CemZ1b5iAwDYdParPj9jbfifxAYwP7tU75lxR/wKsQEAbDqvmrEmfFe1s9gA5uvo6uIZd8jPERsAwKbxIzPWgudXh4kNYGV8Z3XzDDvla6sHig0AYMN7ULPdd35T9XixAaysVzTbJ6efqfYRGwDAhrVfs8/s8zKxAay83auPzriD/tvMjw4AsBFtq94yY+33voYxjABYBXerLp9xR/1zYgMA2HD+44w139eru4oNYHU9d8ad9XXVQ8QGALBhfFt1/Yw137PFBrA2/mTGHfbZ1SFiAwBY9w6rzpmx1vtfYrmn8MYAABcNSURBVANYO3s0+/3op1e7iQ4AYN3arXrvjDXehxrGKgJgDR1fXZpRPQEANovfn7G2u7g6TmwA68OpM+7Ed1RPExsAwLrzrBlrupurp4gNYH156Yw78+3Vt4gNAGDd+PZmHxTu18UGsP7sXJ024w79/Opo0QEArLljqgtmrOX+rtpJdADrd8d+0Yw79ndXu4oOAGDN7Fa9Z8Ya7rzqCNEBrG+Pr26ccQf/e2IDAFgzr5yxdruherTYADaGX2j2QeN+RGwAAKvuhUuo214gNoCN5TUz7uhvrJ4kNgCAVfPvG0Zhn6Vme6XYADaePaoPzLjDv6K6n+gAAFbcQ6prMnYQwJZxfLMPGvf56hDRAQCsmCOrs2es0S5oGBAYgA3sWxvmPJ/lAPDhai/RAQDM3f7Vp2asza6pThEdwObwrGYffOSNmVcTAGCedq7etoS67IdEB7C5zDp9x47qV8QGADA3v7WEeuwVYgPYfHatTpvxgHBz9YOiAwBYtqVc0fh/q11EB7A57Vt9csYDw/XVd4gOAGDJntIwpe0sNdiHMiYQwKZ3fMMooLNOv/YA0QEAzOwh1dUz1l5frY4SHcDW8PDquhkPFGc5UAAAzOTY6pwZa65rG2bhAWALObXhHvNZDhifrg4UHQDAnTqs+sKMtdZN1VNFB7A1/WqzD1by7moP0QEA3K69qw8uoc76T6ID2Lp2qv5qCQeP11fbxAcAcJv11V8sob76M/UVAPtUH1nCQeQ3RQcA8G/89hLqqg9mxHYARgdXn13CweRFogMA+Fe/vIR66pPV/qIDYLG7VOfNeEC5uXqe6AAAeuESmvOzq6NFB8Bt+ebqqhkPLDdU3ys6AGALO7W6ccYa6srqQaID4I48qto+4wHm+uqJogMAtqDvX0Jzvr16hOgAmOIHG+bhnOVAc40DDQCwxTy+uq7Z5zr/AdEBMItfaPb7qC7PpVoAwNbw0OrqJdRLPyE6AJbitUs46JxXnSg6AGATO6m6cAl10itFB8BS7VT9+RIOPudo0gGATeqeS2zOX1ttEx8Ay7Fr9daWNm3IXcUHAGwiJ1ZfXUJd9FfVzuIDYB72qd6/hIPRmdWR4gMANoGjqy8soR56T7WX+ACYp/2qjyzhoPT58YAGALBRnVCdtYQ66EPVvuIDYCUcUn2mpZ1JP0p8AMAGdFTDCYdZ659PVQeLD4CVdHT15SUcpM6ojhAfALCBHFl9bgl1z5dycgKAVXLP6oIlHKw+WR0uPgBgAzii+ueWNuXsyeIDYDWdVJ27hIPWl6u7iA8AWMfu0tKuGDy3upv4AFgLJ1fnL+Hg9ZVMwQYArE8ntrQB4c6r7i4+ANbSg6rLWtro7seKDwBYR46vvriEuuZr1QPFB8B6cP/q0iUczM7OZWAAwPpwr5Z2ZeAl1f3EB8B68sCGT49nPaidPx4QAQDWyn1a2gC4l1YPEB8A69Ejqqtb2pn0k8QHAKyBk1vawLdXVQ8XHwDr2eOr7S1t1NN7iw8AWEX3a2mXtV9bPU58AGwED6+uWMLB7uv5JBoAWB2Pq65cQr1yefUw8QGwkXzbeACb9aC3vfoe8QEAK+ipLe2Kv0urB4sPgI3oYcto0p8qPgBgBZxaXdfSrvR7qPgA2MgeUF28hIPgzdULxAcAzNHPjjXGrHXJRRmtHYBN4p7VeUs4GO6oXiI+AGAOXrLEWuTc6h7iA2AzuV914RIPjL9ZbRMhALAE26qXLrEGOT+zzACwSZ3cMOf5Ug6Qr6t2FSEAMIPdqj9eYu3x5eokEQKwmR1R/fMSD5Tvqw4RIQAwwaHV+5dYc3yiOlyEAGwFh48HvqUcMD9eHSVCAOAOHNPSTwh8dGzuAWDLOLDhjPhSDpxfqe4lQgDgNty3+uoSa4zTq/1FCMBWtHv15iUeQK+svlOEAMAiT6yuWmJt8aaxNgEATfoSlu3VD4gQAKieXl23xJrijQ0DygHAlrdL9UdLPKDeXP0nEQLAlrWt+tWxJlhKLfGaamcxAsA3ev4yDq5vrPYSIQBsKXtXf73E2uGmsfYAAG7HM6vrl3ig/UDDNG4AwOZ3bEufFeba6vtFCAB37kktfYCXL1T3FCEAbGr3qb68xFrhiuoJIgSA2Q68Z7f0Ed6/W4QAsCl9T0v/IP+s6t4iBIDZnViducQD8A3V80QIAJvKT47H+KXUBp+pThAhACzdAdW7lngg3lH9SbWnGAFgQ9ur+tNl1ANvq/YRIwAs357VG5ZxUP6n6nAxAsCGdGT13mXUAX9a7SFGAJifbdWLGqZEWcrB+aLqUWIEgA3l0dXFmUYNANal51TXtfQpVZ4tQgDYEH602r7EY/726hkiBICV95DqwpZ+qdvrc186AKxXezaMIbPU4/wF1TeLEQBWzz0a5jxf6sH7XdVhYgSAdeWI6vRlHN8/V50kRgBYfQdW71jGQfyi6nFiBIB14fEt/X7zHdVbq33FCABrZ/eGS9aXejC/PgPIAMBa2lb9fEuf33xH9dpqN1ECwPrw3JY+eNyO6i0NZ+QBgNVzWMu7Gu6a6uliBID151ENl60v9SB/RnUfMQLAqrh/9fmWNxjcw8UIAOvXUdX7l3Gw355L3gFgpT2/pU+htqN6Z3WIGAFg/Vvu9Cw7qt+v9hAlAMz9GP2aZR6j/9AxGgA2nuXel35G9QAxAsBcPKT6csu73/wZYgSAjesxLe++9KurHxUjACzLj40N9lKPx+dX3y5GANj4Dq3+oeVdTve31cGiBICZHFGdtsxj8N/lfnMA2FR2rf7HMguELzVcngcA3LmHVWct47h7c/Xb1S6iBIDN6UnV15ZZLLxsbPgBgH9rt/FYefMyjrcXVo8WJQBsfidX/9Lyzqa/ozpOlADwDU6o3r3MY+wnqruJEgC2jt0bPt1fTgFxTcM8rtvECcAWt1P1opY3ENyO8di8uzgBYGt63hyKib/K4DUAbF2HVX+zzGPp1dWPiBIAuHv1sWUWFpdVTxclAFvMD1VfX+Yx9H0Nl8YDAFS1Z/UHyywwdlSvqvYRJwCb3H7Va5d5zLy5+t1qD3ECALfl+1reKO87qi9W3y5KADapR1ZfXuax8pLqKaIEAO7M4dXftfyz6W+oDhYnAJvEweOxbbnHx7c13LcOADDJtoYR2q9fZhFyfvVUcQKwwX1/dcEyj4nXZfYTAGAZHlF9peXfY/e/qgPECcAGc1D1upZ/1vyL1cPECQAs137VH86hODk399sBsHE8teFKsOUe/15d7StOAGCevqe6cA6Fyp/n3jsA1q/Dm8+95hdUTxYnALBSDqheP4ei5fKG+/B2FikA68TO1Yuqq+dwnHtltb9IAYDVcGrDFDHLLWA+Wj1YnACssW+qPj6H49olDQPKAQCsqrtU755DMbO9enG1u0gBWGV7VL/RMML6co9n76yOFykAsFZ2qn6mumoOhc0Z1SNFCsAqeWz1+Tkcv66sfiLTpwEA68SJ1bvmUOTc3DBi/CEiBWCFHNZ8xlPZUb29OkGkAMB6dGp16RwKnqsaLnvfTaQAzMnu47FlHoPAXTIe8wAA1rUjqr9pPmcmPlc9QaQALNN3VWfO6dj0poap2AAANox5jfS+o3pLLiEEYHZ3GY8h8zgWXZyz5gDABnb8HAujy6ufrXYVKwB3YrfqF6or5nQMenN1jFgBgM3gqdVX51Qkfbp6nEgBuB1PqD47p2POWdV3ixQA2Gz2bBicZ/uciqZ3Vg8UKwCjh1bvn9MxZvt4zNpDrADAZnZSddqcCqibqzc0XEoPwNZ0wngsuHlOx5Z/qO4mVgBgq9hWPbO6aE7F1NXVS6p9RQuwZew37vuvmdOx5MIMAgcAbGFHVH/S/M56fKX6wfEDAAA2p23V0xvuD5/X1Vh/lKnTAACqenj1iTkVWjuqD1SPEivApvOY6kNzPF58rOHedQAAFlm47P3CORZe76seKVqADe9RzW8AuB3VBeMxxxVXAAB34IDqZdUNcyzETsuI7wAb0SnNb2DRHdV1Dfet7y9aAIDp7l/90xyLsoUR343MC7D+ndR8R2bfUf19dbJoAQCWZqfqR6vz51igXVv9f9Wh4gVYdw6vfqdhHvJ57ffPrZ6dy9kBAOZiz+pF1eXN9zLHV1bHiBdgzd21ev24b57Xfv7r1fOr3cQLADB/hzTcn36jRh1gUzhxBRrzG8ZjxcHiBQBYefes3jLHYk6jDrA2jfn1c96Xv6G6h3gBAFbfY6tPatQBtnxj/onxmAAAwBrarfrphjlt51nsXVP9fkZ9B5iHuzd8+HntnPfV51U/We0qYgCA9dWoP3cs1nbMeXlP9WQRA8zsyeM+dN775fPGfb4B4AAA1rG9G0Z8/9oKFIQfrZ5Z7SxmgNu187iv/NgK7IcvbBiZfS8xAwBsHPs2/6nZFpYvjAXinmIG+Fd7jvvGL67Afvfr4z59HzEDAGxcx1Svav4DEu2oPl/9hIIR2OL2abgPfCUa8+urP6iOFjMAwOZxePWShsHf5l1AXtkw+NG9xQxsIfduGJF93gO/LQzU+ZLqMDEDAGxeh61go35zdVrDoEjbRA1sQjtXp7YyA79pzAEAtqi7VK9pZS5931F9vHpOtYeogU1gj+qHG+YbX4l95nUNtyOdIGoAgK3dqL96BRv1c6oX5/5JYGM6ZtyHnbOCjfkrNeYAANy6Uf/d6uoVKkJvqN5cPaHaSdzAOrZT9Z3V31Q3rtA+8arq5RpzAADuyL4N0wSt1NmiHdV5DfdYHi9uYB05Ydw3nb+C+7+vjvvYfcUNAMBUe1c/U315BQvV66o/rx7fMPASwGrbueFs+V+O+6SV2t99qfqpai+RAwCwVLtUT2sY9G1HK3tW6Terk0QOrIKTq/9anbvC+7aPVT847ksBAGBunlD9Q8N0aitVzN5cnd4wWrJLQIF52q/60VZuirTF+7G/r75D5AAArLQTG+7TvGyFi9zt1Vsa5hx29glYil3GfchbWtlL2HeM+8SXVHcVOwAAq+2w6lda2QGVFpbPVv9PdTexAxPcfdw/nbEK+6fzq1+uDhU7AABrbffq2dUnVqEQ3lF9uPrZhvmJARYcW/189dFV2hd9vHpWtZvoAQBYj76lem11zSoUxzdV765+vDpE9LAlHVb9ZMPYFSs5PsbCcnX1muqbRQ8AwEZxYPXC6sxW50zWDQ33mP5QdYD4YVM7qOHM9VurG1dpH3NG9QL7FwAANrJt1eOqN69iIX199XfVc6vDrQLYFI6ofqxhJonrW70P/t5UPXbclwEAwKZxbPXrDXOe71il5caGy+BfUB1vFcCGckLDlTinN9zSslr7jbOr/1IdbRUAALDZ7VQ9pvrjVude9cVzE3+g+sXqXlYDrEv3rl5UfXAV9w0L95a/vnpUzpYDALBF7d9wKfr7V7kY31F9sXp59R0NI9EDq2+P6vHV/6y+tAb7gfdWP1rtZ1UAAMAt7lm9tDpvDYr0K6u/rn6k4V5XYOUcOTbFb66uWoPt/dzqv1YnWxUAAHDHdqmePDbM29egeN9RfaZ6WfXEam+rBJZln3GbfnnDaOhrsU1fW/3VuE3vbJUAAMDsDmg4q/3OVneQqMXLddU/Vr9UPbjhHnrg9u3cME/4f24YpPH6Ndp2b6xOq57TcDsNAAAwJ0dXP1t9dI2K/YXlkuovqmdXx1ktUA2zJDynekN16Rpvox9umLnhSKsFYOMwQifAxnWP6mnVd1f3X+PXclb1T+NyevU5q4ctsg0+vPr2cVnrD6s+Xv3v6s+qM60eAA06AGvjbtX3j8uD1sHruWBs1E+v3lN9uuESX9iodm+Y/uxhY1P+8OrwNX5NO6qPNNxX/qaGWRkA0KADsI4cUn1XdWr1hIYB59baTQ1n1T86NuzvrT7bMC87rDc7Ncyo8G1jQ/6ghtHO18PAajdUf1+9sXpbw+0mAGjQAdgAjq2+r/qB6iHrbL9/XvXBhvnfPzA279dYZayBvRoGP3xI9a3Vt7S+7t3eMW4nb2g4U36OVQagQQdgYzuyYXqlJ1aPa/1NnXZ9w6Xwn2i4l/YT1SerK6w65mi/hjEbHlg9YFzuU+26zl7nVQ2jr/+fcbnAqgPQoAOwOe1RPaJhXuYnVies09e5o+G+2o8vato/Vl1oFTLBEdUpixrxU6q7ruP650tjM/7WhqnZrrMKATToAGw99xkb9Uc1DH611zp/vZdWn2m4j/2z49dnVGdblVvS8Q0jqt+r4d7xe45fH7TOX/c1DTMf/OPYlH/GqgTQoAPAYns0DIz1uOo7Gi4H3ijHiyvHRv2zDZfLf7H6wrhcbdVuaPtUJzbMWHC3hhHV7zk25vtskN9hR8NVIP/QcPn6e3KWHAANOgAzOGxs1hca9iM36O9x/qJm/QuLmvcvVZdZzevCQQ2XoC9uxBeWIzbo73Teoob87dVFVjMAGnQA5uVeDdNPPXJcjtoEv9PVDZfHnzMuZ1dfHb/+6rhcadUvy77VcQ0zCxwzLsct+vr41v+tFVOc23DJ+ru7ZTpBANCgA7AqTmoYcG6hYT96k/6eVzUMTndRdfG4XLDo64vGf7+0+nqbf8q4vaoDG856Hz4uh1aHNFxlsfD1wr/tvUlzOKd617i8u+GqDADQoAOwLtxtbNQf2jCf9D2qnbZgDtc1XDr/9fHx1l9fNS43jH++YfzzNeP/vby6+Vbf84rqpvHr67v9++r3rnYbv965YWqxxRb+bo9qz4az27tWB4yP+4x/d8DYhB94G1/vvgXX6c0NZ8Q/2HB2/N0Nt0oAgAYdgA1h/7FRf8j4+C3VwWJhA7i0+sDYkC88XiEWADToAGwmJy9q1h/UMM3b3mJhDV1d/Uv1sUXN+JliAUCDDsBWs3PDvewPrB4wPj6w4R5mmLeLG6Y7+/i4fGJsxm8WDQAadAC4bceODfsDGs6237dh5G+YYkfDiPz/0nBGfKEpP1c0AGjQAWD59mkYeO5e1T3H5V4N82fvLJ4t6cbqy9WnqzOqzzQM5nZGw8B7AKBBB4BVtHvDve33Hx/vumg5VDybwkXVlxYtn6s+OT5eLx4ANOgAsP7te6uG/a4NZ97v1jBn9y4iWhduqM5vmEv8jLEJ/+KihtzZcAA06ACwie1cHdFwb/sx43Jcw/3vR49/Pqxb5hVnaa5rGJztnEXLWePjuePXF2SgNgA06ADAnThobOQPq44aHw9vOAN/6PhvB4zL/m3+++Fvqi6vvl5dVl3YcAn6BeNyUXXe+Hhh9TVvIQDQoAPAWthnbNT3Gx8XlgMazs7vOj5n14Y54Hdb9LhXwz31u49fLzhg0bF7z2qP2/nZ26trx693jE30gmsazmYvPOe68e+ub5gL/IaGS8mvbzi7fVl1xdiMLyxX5HJzAAAAAAAAAAAAAAAAAAAAAAAAAAAAAAAAAAAAAAAAAAAAAAAAAAAAAAAAAAAAAAAAAAAAAAAAAAAAAAAAAAAAAAAAAAAAAAAAAAAAAAAAAAAAAAAAAAAAAAAAAAAAAAAAAAAAAAAAAAAAAAAAAAAAAAAAAAAAAAAAAAAAAAAAAAAAAAAAAAAAAAAAAAAAAAAAAAAAAAAAAAAAAAAAAAAAAAAAAAAAAAAAAAAAAAAAAAAAAAAAAAAAAAAAAAAAAAAAAAAAAAAAAAAAAAAAAAAAAAAAAAAAAAAAAAAAAAAAAAAAAAAAAAAAAAAAgP+/PTgkAAAAABD0/7U3DAAAAAAAAAAAAAAAAAAAAAAAAAAAAAAAAAAAAAAAAAAAAAAAAAAAAAAAAAAAAAAAAAAAAAAAAAAAAAAAAAAAAAAAAAAAAAAAAAAAAAAAAAAAAAAAAAAAAAAAAAAAAAAAAAAAAAAAAAAAAAAAAAAAAAAAAAAAAAAAAAAAAAAAAAAAAAAAAAAAAPASkXZqoQMokoAAAAAASUVORK5CYII=;" vertex="1" parent="1">
          <mxGeometry width="820" height="820" as="geometry" />
        </mxCell>
      </root>
    </mxGraphModel>
  </diagram>
</mxfile>
